<svg xmlns="http://www.w3.org/2000/svg" viewBox="0 0 85 85"><path d="M45.41,36.63a4,4,0,0,0-3.33-1.4H38.73V50.08h3.35a3.93,3.93,0,0,0,3.33-1.41c.84-1,1-2.66,1-6.11s-.13-4.9-1-5.92Z"/><path d="M23.13,35.23H18.61v6.24h4.17a3.12,3.12,0,1,0,.35-6.24Z"/><path d="M84.45,22.37H.55V62.63h83.9V22.37ZM23.88,45.47a6.31,6.31,0,0,1-.87,0H18.62v8.58H14.17V31.25H23a7.12,7.12,0,0,1,.87,14.22Zm24.64,6.4a8.29,8.29,0,0,1-6,2.18H34.27V31.25H42.5a8.3,8.3,0,0,1,6,2.19c2.57,2.55,2.31,5.7,2.31,9.12S51.09,49.31,48.52,51.87ZM70.39,35.23H59.82v5.6h9v4h-9v9.25H55.37V31.25h15Z"/><rect width="85" height="85" fill="none"/></svg>